<?xml version="1.0" standalone="no"?>
<!DOCTYPE svg PUBLIC "-//W3C//DTD SVG 20010904//EN"
 "http://www.w3.org/TR/2001/REC-SVG-20010904/DTD/svg10.dtd">
<svg version="1.0" xmlns="http://www.w3.org/2000/svg"
 width="260.000000pt" height="260.000000pt" viewBox="0 0 260.000000 260.000000"
 preserveAspectRatio="xMidYMid meet">
<metadata>
Created by potrace 1.11, written by Peter Selinger 2001-2013
</metadata>
<g transform="translate(0.000000,260.000000) scale(0.100000,-0.100000)"
fill="#000000" stroke="none">
<path d="M1368 1934 c-133 -90 -206 -184 -213 -276 -5 -65 17 -111 89 -190 26
-29 55 -69 64 -88 17 -38 24 -138 10 -146 -4 -3 -8 -13 -8 -22 0 -10 -29 -50
-65 -89 -36 -40 -72 -90 -80 -112 -17 -49 -13 -117 11 -167 25 -52 125 -151
205 -202 l66 -43 287 173 c157 95 294 178 304 183 10 6 77 46 150 90 73 44
141 85 151 90 49 28 52 35 30 67 -41 58 -32 157 18 194 12 8 13 12 1 21 -29
24 -932 563 -942 563 -6 0 -41 -21 -78 -46z m440 -234 c89 -54 60 -193 -44
-207 -130 -17 -184 150 -69 215 31 17 76 14 113 -8z m1 -622 c24 -15 48 -57
51 -88 7 -74 -63 -136 -134 -120 -61 13 -91 50 -91 110 0 40 5 54 29 79 39 41
98 49 145 19z"/>
<path d="M1120 1884 c-69 -25 -134 -49 -145 -54 -11 -5 -41 -17 -66 -27 -26
-10 -96 -59 -157 -109 l-111 -91 152 -126 c84 -70 167 -140 185 -157 l32 -31
-127 -102 c-71 -55 -153 -122 -184 -147 l-56 -47 113 -97 c121 -103 130 -108
354 -189 69 -25 134 -49 145 -53 11 -4 0 12 -26 37 -92 89 -131 168 -130 257
0 70 26 125 93 197 67 73 78 93 79 142 2 54 -12 82 -76 154 -74 83 -87 110
-93 191 -4 59 -1 74 24 125 15 32 53 84 84 115 31 32 51 58 45 57 -5 0 -66
-21 -135 -45z"/>
<path d="M746 1741 c-3 -5 -18 -12 -33 -16 -66 -16 -454 -197 -472 -219 -6 -7
36 -42 130 -106 76 -52 138 -100 139 -106 0 -6 -65 -54 -145 -107 -103 -68
-141 -98 -132 -105 21 -17 216 -112 326 -159 203 -86 220 -93 228 -93 7 0 -31
34 -129 114 -27 21 -48 43 -48 50 1 6 56 55 123 109 67 53 134 107 149 120 15
12 41 33 58 46 34 27 40 16 -56 96 -26 22 -52 45 -58 50 -6 6 -33 28 -61 50
-27 22 -56 47 -65 55 -9 9 -32 28 -53 44 -20 16 -37 34 -37 40 0 6 36 40 80
75 44 34 80 65 80 67 0 8 -19 4 -24 -5z"/>
<path d="M190 1480 c0 -5 -5 -10 -11 -10 -19 0 -113 -73 -147 -113 -36 -44
-38 -74 -7 -121 21 -31 144 -126 164 -126 13 0 239 146 269 175 10 9 -13 30
-114 101 -155 108 -154 108 -154 94z"/>
<path d="M2395 1364 c-25 -26 -29 -44 -25 -94 2 -29 25 -69 44 -76 8 -3 52 18
99 47 l86 53 -81 48 c-45 26 -85 48 -90 48 -5 0 -20 -12 -33 -26z"/>
</g>
</svg>
