<?xml version="1.0" standalone="no"?>
<!DOCTYPE svg PUBLIC "-//W3C//DTD SVG 1.1//EN" "http://www.w3.org/Graphics/SVG/1.1/DTD/svg11.dtd">
<svg width="100%" height="100%" viewBox="0 0 3338 262" version="1.1" xmlns="http://www.w3.org/2000/svg" xmlns:xlink="http://www.w3.org/1999/xlink" xml:space="preserve" style="fill-rule:evenodd;clip-rule:evenodd;">
    <g transform="matrix(1,0,0,1,-118.853,-293.468)">
        <g transform="matrix(18.6695,0,0,18.6695,-4084.72,-706.251)">
            <path d="M225.465,56.302C225.447,56.901 226,57.404 226.547,57.532C227.903,57.851 228.307,56.123 227.464,55.318C227.158,55.027 226.528,55.073 226.199,55.271C225.906,55.448 225.477,55.932 225.465,56.302Z" style="fill:none;stroke-width:0.15px;stroke:black;"/>
        </g>
        <g transform="matrix(18.6695,0,0,18.6695,-4084.72,-706.251)">
            <path d="M264.865,62.011C264.847,62.609 265.4,63.112 265.947,63.24C267.303,63.56 267.708,61.831 266.864,61.027C266.558,60.735 265.928,60.781 265.599,60.979C265.306,61.157 264.877,61.64 264.865,62.011Z" style="fill:none;stroke-width:0.15px;stroke:black;"/>
        </g>
        <g transform="matrix(18.6695,0,0,18.6695,-4084.72,-706.251)">
            <path d="M226.693,57.571C226.592,58.692 226.672,59.812 226.707,60.934C226.739,61.98 226.721,63.025 226.699,64.071C226.687,64.543 226.67,65.014 226.649,65.485" style="fill:none;stroke-width:0.15px;stroke:black;"/>
        </g>
        <g transform="matrix(18.6695,0,0,18.6695,-4084.72,-706.251)">
            <path d="M226.627,65.463C226.934,65.519 227.252,65.442 227.565,65.442" style="fill:none;stroke-width:0.15px;stroke:black;"/>
        </g>
        <g transform="matrix(18.6695,0,0,18.6695,-4084.72,-706.251)">
            <path d="M226.627,59.424C226.793,59.598 227.014,59.729 227.219,59.86C227.369,59.955 227.554,60.143 227.717,60.187" style="fill:none;stroke-width:0.15px;stroke:black;"/>
        </g>
        <g transform="matrix(18.6695,0,0,18.6695,-4084.72,-706.251)">
            <path d="M227.695,60.21C227.673,59.802 227.815,59.34 227.849,58.929C227.871,58.918 227.892,58.909 227.914,58.901" style="fill:none;stroke-width:0.15px;stroke:black;"/>
        </g>
        <g transform="matrix(18.6695,0,0,18.6695,-4084.72,-706.251)">
            <path d="M401.148,56.302C401.129,56.901 401.683,57.404 402.23,57.532C403.586,57.851 403.99,56.123 403.146,55.318C402.841,55.027 402.21,55.073 401.882,55.271C401.588,55.448 401.159,55.932 401.148,56.302Z" style="fill:none;stroke-width:0.15px;stroke:black;"/>
        </g>
        <g transform="matrix(18.6695,0,0,18.6695,-4084.72,-706.251)">
            <path d="M402.375,57.571C402.275,58.692 402.354,59.812 402.389,60.934C402.421,61.98 402.403,63.025 402.381,64.071C402.37,64.543 402.353,65.014 402.331,65.485" style="fill:none;stroke-width:0.15px;stroke:black;"/>
        </g>
        <g transform="matrix(18.6695,0,0,18.6695,-4084.72,-706.251)">
            <path d="M402.31,65.463C402.616,65.519 402.934,65.442 403.248,65.442" style="fill:none;stroke-width:0.15px;stroke:black;"/>
        </g>
        <g transform="matrix(18.6695,0,0,18.6695,-4084.72,-706.251)">
            <path d="M402.31,59.424C402.476,59.598 402.696,59.729 402.902,59.86C403.052,59.955 403.237,60.143 403.4,60.187" style="fill:none;stroke-width:0.15px;stroke:black;"/>
        </g>
        <g transform="matrix(18.6695,0,0,18.6695,-4084.72,-706.251)">
            <path d="M403.378,60.21C403.355,59.802 403.497,59.34 403.532,58.929C403.553,58.918 403.573,58.909 403.596,58.901" style="fill:none;stroke-width:0.15px;stroke:black;"/>
        </g>
        <g transform="matrix(18.6695,0,0,18.6695,-4084.72,-706.251)">
            <path d="M233.582,57.571C233.941,58.449 234.043,59.333 234.13,60.27C234.246,61.505 234.141,62.684 233.961,63.907C233.883,64.432 233.814,64.955 233.801,65.485" style="fill:none;stroke-width:0.15px;stroke:black;"/>
        </g>
        <g transform="matrix(18.6695,0,0,18.6695,-4084.72,-706.251)">
            <path d="M233.756,65.485C234,65.395 234.385,65.464 234.651,65.464" style="fill:none;stroke-width:0.15px;stroke:black;"/>
        </g>
        <g transform="matrix(18.6695,0,0,18.6695,-4084.72,-706.251)">
            <path d="M377.025,62.252C377.006,62.85 377.56,63.354 378.106,63.481C379.463,63.801 379.867,62.072 379.023,61.268C378.718,60.976 378.087,61.023 377.759,61.22C377.465,61.398 377.036,61.881 377.025,62.252Z" style="fill:none;stroke-width:0.15px;stroke:black;"/>
        </g>
        <g transform="matrix(18.6695,0,0,18.6695,-4084.72,-706.251)">
            <path d="M375.032,59.595C374.949,60.78 375.057,61.958 375.087,63.144C375.108,63.98 375.03,64.799 374.971,65.631" style="fill:none;stroke-width:0.15px;stroke:black;"/>
        </g>
        <g transform="matrix(18.6695,0,0,18.6695,-4084.72,-706.251)">
            <path d="M374.942,65.631C375.154,65.631 375.405,65.667 375.605,65.601" style="fill:none;stroke-width:0.15px;stroke:black;"/>
        </g>
        <g transform="matrix(18.6695,0,0,18.6695,-4084.72,-706.251)">
            <path d="M375.032,59.595C376.265,59.228 377.601,59.914 378.171,61.043" style="fill:none;stroke-width:0.15px;stroke:black;"/>
        </g>
        <g transform="matrix(18.6695,0,0,18.6695,-4084.72,-706.251)">
            <path d="M377.326,60.138C376.554,61.041 376.576,62.301 376.633,63.428C376.669,64.157 376.762,64.85 377,65.538C377.03,65.534 377.048,65.515 377.055,65.48" style="fill:none;stroke-width:0.15px;stroke:black;"/>
        </g>
        <g transform="matrix(18.6695,0,0,18.6695,-4084.72,-706.251)">
            <path d="M377.447,60.078C380.156,60.092 379.979,63.709 380.072,65.601" style="fill:none;stroke-width:0.15px;stroke:black;"/>
        </g>
        <g transform="matrix(18.6695,0,0,18.6695,-4084.72,-706.251)">
            <path d="M243.397,62.252C243.379,62.85 243.932,63.354 244.479,63.481C245.835,63.801 246.239,62.072 245.396,61.268C245.09,60.976 244.46,61.023 244.131,61.22C243.838,61.398 243.409,61.881 243.397,62.252Z" style="fill:none;stroke-width:0.15px;stroke:black;"/>
        </g>
        <g transform="matrix(18.6695,0,0,18.6695,-4084.72,-706.251)">
            <path d="M241.404,59.595C241.32,60.78 241.429,61.958 241.459,63.144C241.48,63.98 241.402,64.799 241.343,65.631" style="fill:none;stroke-width:0.15px;stroke:black;"/>
        </g>
        <g transform="matrix(18.6695,0,0,18.6695,-4084.72,-706.251)">
            <path d="M241.428,65.631C241.641,65.631 241.891,65.667 242.092,65.601" style="fill:none;stroke-width:0.15px;stroke:black;"/>
        </g>
        <g transform="matrix(18.6695,0,0,18.6695,-4084.72,-706.251)">
            <path d="M241.404,59.595C242.637,59.228 243.973,59.914 244.543,61.043" style="fill:none;stroke-width:0.15px;stroke:black;"/>
        </g>
        <g transform="matrix(18.6695,0,0,18.6695,-4084.72,-706.251)">
            <path d="M265.692,63.187C265.363,63.718 264.972,64.244 264.451,64.601C264.062,64.867 263.601,65.017 263.187,65.24" style="fill:none;stroke-width:0.15px;stroke:black;"/>
        </g>
        <g transform="matrix(18.6695,0,0,18.6695,-4084.72,-706.251)">
            <path d="M263.218,65.299C264.153,65.161 265.14,65.221 266.085,65.239" style="fill:none;stroke-width:0.15px;stroke:black;"/>
        </g>
        <g transform="matrix(18.6695,0,0,18.6695,-4084.72,-706.251)">
            <path d="M266.055,65.33C266.023,65.825 265.887,66.417 266.055,66.899" style="fill:none;stroke-width:0.15px;stroke:black;"/>
        </g>
        <g transform="matrix(18.6695,0,0,18.6695,-4084.72,-706.251)">
            <path d="M266.024,66.899L266.749,66.899" style="fill:none;stroke-width:0.15px;stroke:black;"/>
        </g>
        <g transform="matrix(18.6695,0,0,18.6695,-4084.72,-706.251)">
            <path d="M297.468,62.41C297.45,63.008 298.003,63.512 298.55,63.639C299.906,63.958 300.31,62.23 299.467,61.426C299.161,61.134 298.531,61.181 298.202,61.378C297.909,61.556 297.48,62.04 297.468,62.41Z" style="fill:none;stroke-width:0.15px;stroke:black;"/>
        </g>
        <g transform="matrix(18.6695,0,0,18.6695,-4084.72,-706.251)">
            <path d="M312.078,65.429C312.06,66.027 312.613,66.53 313.16,66.658C314.516,66.977 314.92,65.249 314.077,64.445C313.771,64.153 313.14,64.199 312.812,64.397C312.518,64.574 312.09,65.058 312.078,65.429Z" style="fill:none;stroke-width:0.15px;stroke:black;"/>
        </g>
        <g transform="matrix(18.6695,0,0,18.6695,-4084.72,-706.251)">
            <path d="M328.374,63.065C328.356,63.663 328.91,64.167 329.456,64.294C330.812,64.613 331.216,62.885 330.373,62.081C330.067,61.789 329.436,61.836 329.109,62.033C328.815,62.211 328.386,62.694 328.374,63.065Z" style="fill:none;stroke-width:0.15px;stroke:black;"/>
        </g>
        <g transform="matrix(18.6695,0,0,18.6695,-4084.72,-706.251)">
            <path d="M342.615,63.914C342.597,64.512 343.15,65.016 343.696,65.143C345.053,65.462 345.457,63.734 344.613,62.93C344.308,62.638 343.677,62.685 343.349,62.882C343.055,63.059 342.627,63.543 342.615,63.914Z" style="fill:none;stroke-width:0.15px;stroke:black;"/>
        </g>
        <g transform="matrix(18.6695,0,0,18.6695,-4084.72,-706.251)">
            <path d="M312.331,66.246C311.713,66.599 311.204,66.969 310.465,66.809C309.618,66.626 308.819,66.193 308.007,65.898" style="fill:none;stroke-width:0.15px;stroke:black;"/>
        </g>
        <g transform="matrix(18.6695,0,0,18.6695,-4084.72,-706.251)">
            <path d="M308.007,65.937C306.969,66.81 306.103,67.075 304.764,66.825" style="fill:none;stroke-width:0.15px;stroke:black;"/>
        </g>
        <g transform="matrix(18.6695,0,0,18.6695,-4084.72,-706.251)">
            <path d="M304.802,66.825C304.674,66.893 304.547,67.089 304.493,67.25" style="fill:none;stroke-width:0.15px;stroke:black;"/>
        </g>
        <g transform="matrix(18.6695,0,0,18.6695,-4084.72,-706.251)">
            <path d="M311.945,66.439C312.592,66.826 313.372,66.876 314.105,66.895C314.994,66.918 315.929,66.963 316.81,66.825" style="fill:none;stroke-width:0.15px;stroke:black;"/>
        </g>
        <g transform="matrix(18.6695,0,0,18.6695,-4084.72,-706.251)">
            <path d="M329.248,64.238C329.531,65.277 329.458,66.048 328.278,66.325C326.826,66.665 325.24,66.433 323.764,66.446C323.131,66.452 322.502,66.493 321.873,66.554" style="fill:none;stroke-width:0.15px;stroke:black;"/>
        </g>
        <g transform="matrix(18.6695,0,0,18.6695,-4084.72,-706.251)">
            <path d="M321.95,66.554C321.736,66.703 321.622,66.925 321.448,67.095" style="fill:none;stroke-width:0.15px;stroke:black;"/>
        </g>
        <g transform="matrix(18.6695,0,0,18.6695,-4084.72,-706.251)">
            <path d="M329.093,64.161C329.043,65.061 328.812,66.179 329.093,67.057" style="fill:none;stroke-width:0.15px;stroke:black;"/>
        </g>
        <g transform="matrix(18.6695,0,0,18.6695,-4084.72,-706.251)">
            <path d="M336.43,66.362C337.433,65.483 338.141,64.142 338.826,63.018C339.258,62.309 339.638,61.571 340.058,60.856C340.211,60.596 340.393,60.151 340.716,60.068" style="fill:none;stroke-width:0.15px;stroke:black;"/>
        </g>
        <g transform="matrix(18.6695,0,0,18.6695,-4084.72,-706.251)">
            <path d="M340.716,60.106C341.078,61.472 343.259,62.268 344.461,62.732" style="fill:none;stroke-width:0.15px;stroke:black;"/>
        </g>
        <g transform="matrix(18.6695,0,0,18.6695,-4084.72,-706.251)">
            <path d="M344.423,62.694C344.837,63.409 345.631,63.923 346.217,64.488C346.912,65.159 347.617,65.771 348.439,66.285" style="fill:none;stroke-width:0.15px;stroke:black;"/>
        </g>
        <g transform="matrix(18.6695,0,0,18.6695,-4084.72,-706.251)">
            <path d="M336.353,66.362L337.203,66.362" style="fill:none;stroke-width:0.15px;stroke:black;"/>
        </g>
        <g transform="matrix(18.6695,0,0,18.6695,-4084.72,-706.251)">
            <path d="M278.777,63.914C278.759,64.512 279.312,65.016 279.859,65.143C281.215,65.462 281.619,63.734 280.775,62.93C280.47,62.638 279.839,62.685 279.511,62.882C279.217,63.059 278.789,63.543 278.777,63.914Z" style="fill:none;stroke-width:0.15px;stroke:black;"/>
        </g>
        <g transform="matrix(18.6695,0,0,18.6695,-4084.72,-706.251)">
            <path d="M272.592,66.362C273.595,65.483 274.303,64.142 274.988,63.018C275.42,62.309 275.799,61.571 276.22,60.856C276.372,60.596 276.555,60.151 276.877,60.068" style="fill:none;stroke-width:0.15px;stroke:black;"/>
        </g>
        <g transform="matrix(18.6695,0,0,18.6695,-4084.72,-706.251)">
            <path d="M276.877,60.106C277.24,61.472 279.421,62.268 280.623,62.732" style="fill:none;stroke-width:0.15px;stroke:black;"/>
        </g>
        <g transform="matrix(18.6695,0,0,18.6695,-4084.72,-706.251)">
            <path d="M280.584,62.694C280.999,63.409 281.793,63.923 282.379,64.488C283.074,65.159 283.779,65.771 284.6,66.285" style="fill:none;stroke-width:0.15px;stroke:black;"/>
        </g>
        <g transform="matrix(18.6695,0,0,18.6695,-4084.72,-706.251)">
            <path d="M272.514,66.362L273.364,66.362" style="fill:none;stroke-width:0.15px;stroke:black;"/>
        </g>
        <g transform="matrix(18.6695,0,0,18.6695,-4084.72,-706.251)">
            <path d="M297.719,63.14C295.303,64.24 292.8,65.15 290.548,66.411" style="fill:none;stroke-width:0.15px;stroke:black;"/>
        </g>
        <g transform="matrix(18.6695,0,0,18.6695,-4084.72,-706.251)">
            <path d="M296.851,63.534C296.728,63.882 296.781,64.295 296.747,64.66C296.711,65.041 296.707,65.422 296.676,65.802C296.647,66.143 296.595,66.488 296.594,66.829" style="fill:none;stroke-width:0.15px;stroke:black;"/>
        </g>
        <g transform="matrix(18.6695,0,0,18.6695,-4084.72,-706.251)">
            <path d="M296.566,66.801C296.694,66.801 296.891,66.755 296.986,66.775" style="fill:none;stroke-width:0.15px;stroke:black;"/>
        </g>
        <g transform="matrix(18.6695,0,0,18.6695,-4084.72,-706.251)">
            <path d="M232.027,56.302C232.009,56.9 232.562,57.404 233.109,57.532C234.465,57.851 234.869,56.123 234.026,55.318C233.72,55.027 233.089,55.073 232.761,55.271C232.468,55.448 232.039,55.932 232.027,56.302" style="fill:white;fill-rule:nonzero;"/>
        </g>
        <g transform="matrix(18.6695,0,0,18.6695,-4084.72,-706.251)">
            <path d="M232.027,56.302C232.009,56.9 232.562,57.404 233.109,57.532C234.465,57.851 234.869,56.123 234.026,55.318C233.72,55.027 233.089,55.073 232.761,55.271C232.468,55.448 232.039,55.932 232.027,56.302Z" style="fill:none;stroke-width:0.15px;stroke:black;"/>
        </g>
        <g transform="matrix(18.6695,0,0,18.6695,-4084.72,-706.251)">
            <path d="M368.154,59.595C368.07,60.78 368.178,61.958 368.209,63.144C368.23,63.98 368.152,64.799 368.093,65.631" style="fill:none;stroke-width:0.15px;stroke:black;"/>
        </g>
        <g transform="matrix(18.6695,0,0,18.6695,-4084.72,-706.251)">
            <path d="M368.064,65.631C368.277,65.631 368.528,65.667 368.727,65.601" style="fill:none;stroke-width:0.15px;stroke:black;"/>
        </g>
        <g transform="matrix(18.6695,0,0,18.6695,-4084.72,-706.251)">
            <path d="M368.154,59.595C368.477,59.498 368.721,59.776 368.997,59.902C369.383,60.079 369.772,60.233 370.147,60.436C370.47,60.61 370.817,60.878 371.173,60.985" style="fill:none;stroke-width:0.15px;stroke:black;"/>
        </g>
        <g transform="matrix(18.6695,0,0,18.6695,-4084.72,-706.251)">
            <path d="M370.807,60.82C369.811,61.986 369.989,63.989 370.259,65.389" style="fill:none;stroke-width:0.15px;stroke:black;"/>
        </g>
        <g transform="matrix(18.6695,0,0,18.6695,-4084.72,-706.251)">
            <path d="M370.841,60.82C373.179,60.82 373.371,63.645 373.433,65.384" style="fill:none;stroke-width:0.15px;stroke:black;"/>
        </g>
        <g transform="matrix(18.6695,0,0,18.6695,-4084.72,-706.251)">
            <path d="M370.935,61.49C370.917,62.088 371.47,62.592 372.017,62.719C373.373,63.038 373.777,61.31 372.934,60.506C372.628,60.214 371.997,60.261 371.67,60.459C371.376,60.636 370.947,61.119 370.935,61.49" style="fill:white;fill-rule:nonzero;"/>
        </g>
        <g transform="matrix(18.6695,0,0,18.6695,-4084.72,-706.251)">
            <path d="M370.935,61.49C370.917,62.088 371.47,62.592 372.017,62.719C373.373,63.038 373.777,61.31 372.934,60.506C372.628,60.214 371.997,60.261 371.67,60.459C371.376,60.636 370.947,61.119 370.935,61.49Z" style="fill:none;stroke-width:0.15px;stroke:black;"/>
        </g>
        <g transform="matrix(18.6695,0,0,18.6695,-4084.72,-706.251)">
            <path d="M247.133,59.595C247.049,60.78 247.158,61.958 247.188,63.144C247.209,63.98 247.131,64.799 247.072,65.631" style="fill:none;stroke-width:0.15px;stroke:black;"/>
        </g>
        <g transform="matrix(18.6695,0,0,18.6695,-4084.72,-706.251)">
            <path d="M247.043,65.631C247.255,65.631 247.506,65.667 247.706,65.601" style="fill:none;stroke-width:0.15px;stroke:black;"/>
        </g>
        <g transform="matrix(18.6695,0,0,18.6695,-4084.72,-706.251)">
            <path d="M247.133,59.595C247.457,59.498 247.7,59.776 247.977,59.902C248.362,60.079 248.752,60.233 249.127,60.436C249.449,60.61 249.796,60.878 250.151,60.985" style="fill:none;stroke-width:0.15px;stroke:black;"/>
        </g>
        <g transform="matrix(18.6695,0,0,18.6695,-4084.72,-706.251)">
            <path d="M249.785,60.82C248.789,61.986 248.967,63.989 249.238,65.389" style="fill:none;stroke-width:0.15px;stroke:black;"/>
        </g>
        <g transform="matrix(18.6695,0,0,18.6695,-4084.72,-706.251)">
            <path d="M249.82,60.82C252.158,60.82 252.349,63.645 252.411,65.384" style="fill:none;stroke-width:0.15px;stroke:black;"/>
        </g>
        <g transform="matrix(18.6695,0,0,18.6695,-4084.72,-706.251)">
            <path d="M249.914,61.49C249.895,62.088 250.449,62.592 250.995,62.719C252.352,63.038 252.756,61.31 251.912,60.506C251.607,60.214 250.975,60.261 250.648,60.459C250.354,60.636 249.925,61.119 249.914,61.49" style="fill:white;fill-rule:nonzero;"/>
        </g>
        <g transform="matrix(18.6695,0,0,18.6695,-4084.72,-706.251)">
            <path d="M249.914,61.49C249.895,62.088 250.449,62.592 250.995,62.719C252.352,63.038 252.756,61.31 251.912,60.506C251.607,60.214 250.975,60.261 250.648,60.459C250.354,60.636 249.925,61.119 249.914,61.49Z" style="fill:none;stroke-width:0.15px;stroke:black;"/>
        </g>
        <g transform="matrix(18.6695,0,0,18.6695,-4084.72,-706.251)">
            <path d="M263.134,65.298C262.235,65.806 261.303,66.273 260.414,66.792" style="fill:none;stroke-width:0.15px;stroke:black;"/>
        </g>
        <g transform="matrix(18.6695,0,0,18.6695,-4084.72,-706.251)">
            <path d="M260.463,66.768C260.233,66.789 260.004,66.682 259.78,66.646C259.506,66.603 259.239,66.597 258.961,66.597C258.457,66.595 257.996,66.681 257.502,66.723C257.514,66.863 257.43,66.985 257.4,67.112" style="fill:none;stroke-width:0.15px;stroke:black;"/>
        </g>
        <g transform="matrix(18.6695,0,0,18.6695,-4084.72,-706.251)">
            <path d="M230.837,53.855C232.189,55.305 233.148,57.014 233.924,58.83" style="fill:none;stroke-width:0.15px;stroke:black;"/>
        </g>
        <g transform="matrix(18.6695,0,0,18.6695,-4084.72,-706.251)">
            <path d="M389.651,57.571C390.01,58.449 390.112,59.333 390.199,60.27C390.315,61.505 390.21,62.684 390.03,63.907C389.953,64.432 389.884,64.955 389.87,65.485" style="fill:none;stroke-width:0.15px;stroke:black;"/>
        </g>
        <g transform="matrix(18.6695,0,0,18.6695,-4084.72,-706.251)">
            <path d="M389.826,65.485C390.07,65.395 390.454,65.464 390.72,65.464" style="fill:none;stroke-width:0.15px;stroke:black;"/>
        </g>
        <g transform="matrix(18.6695,0,0,18.6695,-4084.72,-706.251)">
            <path d="M388.097,56.302C388.079,56.9 388.632,57.404 389.179,57.532C390.535,57.851 390.939,56.123 390.096,55.318C389.79,55.027 389.16,55.073 388.831,55.271C388.538,55.448 388.109,55.932 388.097,56.302" style="fill:white;fill-rule:nonzero;"/>
        </g>
        <g transform="matrix(18.6695,0,0,18.6695,-4084.72,-706.251)">
            <path d="M388.097,56.302C388.079,56.9 388.632,57.404 389.179,57.532C390.535,57.851 390.939,56.123 390.096,55.318C389.79,55.027 389.16,55.073 388.831,55.271C388.538,55.448 388.109,55.932 388.097,56.302Z" style="fill:none;stroke-width:0.15px;stroke:black;"/>
        </g>
        <g transform="matrix(18.6695,0,0,18.6695,-4084.72,-706.251)">
            <path d="M386.906,53.855C388.258,55.305 389.217,57.014 389.994,58.83" style="fill:none;stroke-width:0.15px;stroke:black;"/>
        </g>
        <g transform="matrix(18.6695,0,0,18.6695,-4084.72,-706.251)">
            <path d="M265.412,59.124C265.662,60.257 265.848,61.489 265.589,62.638C265.494,63.06 265.408,63.607 265.168,63.976" style="fill:none;stroke-width:0.15px;stroke:black;"/>
        </g>
        <g transform="matrix(18.6695,0,0,18.6695,-4084.72,-706.251)">
            <path d="M360.356,62.011C360.338,62.609 360.891,63.112 361.438,63.24C362.794,63.56 363.198,61.831 362.355,61.027C362.049,60.735 361.418,60.781 361.09,60.979C360.796,61.157 360.367,61.64 360.356,62.011Z" style="fill:none;stroke-width:0.15px;stroke:black;"/>
        </g>
        <g transform="matrix(18.6695,0,0,18.6695,-4084.72,-706.251)">
            <path d="M361.182,63.187C360.853,63.718 360.462,64.244 359.941,64.601C359.552,64.867 359.092,65.017 358.677,65.24" style="fill:none;stroke-width:0.15px;stroke:black;"/>
        </g>
        <g transform="matrix(18.6695,0,0,18.6695,-4084.72,-706.251)">
            <path d="M358.707,65.299C359.643,65.161 360.629,65.221 361.574,65.239" style="fill:none;stroke-width:0.15px;stroke:black;"/>
        </g>
        <g transform="matrix(18.6695,0,0,18.6695,-4084.72,-706.251)">
            <path d="M361.544,65.33C361.513,65.825 361.377,66.417 361.544,66.899" style="fill:none;stroke-width:0.15px;stroke:black;"/>
        </g>
        <g transform="matrix(18.6695,0,0,18.6695,-4084.72,-706.251)">
            <path d="M361.514,66.899L362.239,66.899" style="fill:none;stroke-width:0.15px;stroke:black;"/>
        </g>
        <g transform="matrix(18.6695,0,0,18.6695,-4084.72,-706.251)">
            <path d="M358.624,65.298C357.725,65.806 356.793,66.273 355.904,66.792" style="fill:none;stroke-width:0.15px;stroke:black;"/>
        </g>
        <g transform="matrix(18.6695,0,0,18.6695,-4084.72,-706.251)">
            <path d="M355.952,66.768C355.722,66.789 355.493,66.682 355.269,66.646C354.995,66.603 354.728,66.597 354.451,66.597C353.947,66.595 353.486,66.681 352.991,66.723C353.004,66.863 352.919,66.985 352.889,67.112" style="fill:none;stroke-width:0.15px;stroke:black;"/>
        </g>
        <g transform="matrix(18.6695,0,0,18.6695,-4084.72,-706.251)">
            <path d="M360.902,59.124C361.152,60.257 361.338,61.489 361.078,62.638C360.983,63.06 360.897,63.607 360.658,63.976" style="fill:none;stroke-width:0.15px;stroke:black;"/>
        </g>
        <g transform="matrix(18.6695,0,0,18.6695,-4084.72,-706.251)">
            <path d="M290.514,66.377L290.514,67.112" style="fill:none;stroke-width:0.15px;stroke:black;"/>
        </g>
        <g transform="matrix(18.6695,0,0,18.6695,-4084.72,-706.251)">
            <path d="M243.161,56.358C242.996,57.407 243.107,58.589 243.599,59.542C243.758,59.848 243.95,60.129 244.109,60.432C244.117,60.412 244.117,60.392 244.113,60.372" style="fill:none;stroke-width:0.15px;stroke:black;"/>
        </g>
        <g transform="matrix(18.6695,0,0,18.6695,-4084.72,-706.251)">
            <path d="M243.201,56.318C243.858,56.937 244.079,58.17 244.168,59.028C244.222,59.556 244.238,60.085 244.235,60.615" style="fill:none;stroke-width:0.15px;stroke:black;"/>
        </g>
    </g>
</svg>
